<svg width="100" height="100" viewBox="0 0 620 620" fill="none" xmlns="http://www.w3.org/2000/svg">
  <style>
    :root { --c: #333; }
    @media (prefers-color-scheme: dark) { :root { --c: #ccc; } }
  </style>
  <polygon points="570,310 440,535 180,535 50,310 180,85 440,85" stroke="var(--c)" stroke-width="18" stroke-linejoin="round"/>
  <polygon points="440,385 310,460 180,385 180,235 310,160 440,235" stroke="var(--c)" stroke-width="8" opacity="0.4" stroke-linejoin="round"/>
  <circle cx="310" cy="310" r="10" fill="var(--c)"/>
  <circle cx="570" cy="310" r="6" fill="var(--c)" opacity="0.5"/>
  <circle cx="440" cy="535" r="6" fill="var(--c)" opacity="0.5"/>
  <circle cx="180" cy="535" r="6" fill="var(--c)" opacity="0.5"/>
  <circle cx="50" cy="310" r="6" fill="var(--c)" opacity="0.5"/>
  <circle cx="180" cy="85" r="6" fill="var(--c)" opacity="0.5"/>
  <circle cx="440" cy="85" r="6" fill="var(--c)" opacity="0.5"/>
  <circle cx="440" cy="385" r="4" fill="var(--c)" opacity="0.3"/>
  <circle cx="310" cy="460" r="4" fill="var(--c)" opacity="0.3"/>
  <circle cx="180" cy="385" r="4" fill="var(--c)" opacity="0.3"/>
  <circle cx="180" cy="235" r="4" fill="var(--c)" opacity="0.3"/>
  <circle cx="310" cy="160" r="4" fill="var(--c)" opacity="0.3"/>
  <circle cx="440" cy="235" r="4" fill="var(--c)" opacity="0.3"/>
</svg>
